# xmcd
#
# Track frame offsets: 
#        150
#        14220
#        24930
#        39495
#        51680
#        62910
#        74895
#        84885
#        96947
#        112280
#        122797
#        134715
#        147520
#        162927
#        176265
#        190950
#        207222
#        222247
#        236392
#        249927
#        262605
#        276432
#        288882
#        299670
#        312837
#        324412
#
# Disc length: 4386 seconds
#
# Revision: 4
# Processed by: cddbd v1.5.1PL0 Copyright (c) Steve Scherf et al.
# Submitted via: ExactAudioCopy v0.90b4
#
DISCID=9b11201a
DTITLE=Marvin Gaye - Love Starved Heart (Expanded Edition)
DYEAR=1900
DGENRE=Oldies
TTITLE0=It's A Desparate Situation
TTITLE1=I Found Something
TTITLE2=When I Feel The Need
TTITLE3=This Love Starved Heart Of Mine (It's Killing Me)
TTITLE4=You'se A Son Of A Gun
TTITLE5=For Us Both I'll Be Concerned
TTITLE6=Darling You're Wonderful
TTITLE7=Sad Souvenirs
TTITLE8=I Can't Help It (I Love You)
TTITLE9=It's A Lonely World Without Your Love
TTITLE10=Say When
TTITLE11=Lucky Lucky Me
TTITLE12=Get Away Heartbreak (Keep On Moving)
TTITLE13=Court Of The Common Plea
TTITLE14=You Make Me Do Things (I Don't Want To Do)
TTITLE15=Hope I Don't Get My Heart Broke
TTITLE16=You're The One
TTITLE17=Dark Side Of The World
TTITLE18=I'm In Love With You
TTITLE19=Just A Little Love (Before My Life Is Gone)
TTITLE20=Baby I'm Glad That Things Worked Out So Well
TTITLE21=Hanging On
TTITLE22=Gotta Say It, Gonna Tell It Like It Is
TTITLE23=Love's More Precious Than Gold
TTITLE24=Loving And Affection
TTITLE25=Marvin Gaye Interview (Excerpt)
EXTD=
EXTT0=
EXTT1=
EXTT2=
EXTT3=
EXTT4=
EXTT5=
EXTT6=
EXTT7=
EXTT8=
EXTT9=
EXTT10=
EXTT11=
EXTT12=
EXTT13=
EXTT14=
EXTT15=
EXTT16=
EXTT17=
EXTT18=
EXTT19=
EXTT20=
EXTT21=
EXTT22=
EXTT23=
EXTT24=
EXTT25=
PLAYORDER=
